<?xml version="1.0" encoding="utf-8"?>
<!-- Generator: Adobe Illustrator 24.1.2, SVG Export Plug-In . SVG Version: 6.00 Build 0)  -->
<svg version="1.1" id="Layer_1" xmlns="http://www.w3.org/2000/svg" xmlns:xlink="http://www.w3.org/1999/xlink" x="0px" y="0px"
	 viewBox="0 0 2500 727" style="enable-background:new 0 0 2500 727;" xml:space="preserve">
<style type="text/css">
	.st0{fill-rule:evenodd;clip-rule:evenodd;fill:#FFFFFF;}
</style>
<path class="st0" d="M1666.1,512.7c-33.1,35.5-75.5,53.5-126.2,53.5c-50.7,0-93.2-18-126.2-53.5c-31.6-33.8-49.7-87.8-49.7-148.2
	c0-58.9,18.3-112.2,50.3-146.3c33.4-35.5,75.7-53.6,125.6-53.7c50.1,0.1,92.3,18.2,125.7,53.7c32,34,50.3,87.3,50.3,146.3
	C1715.8,424.9,1697.7,478.9,1666.1,512.7L1666.1,512.7z M1222.3,364.5c0,2.7,0.1,5.4,0.2,8.1c-50.7-46.2-124-63.3-168.8-72.3
	c-82.9-17.5-146.2-33.5-146.2-92.5c0-41.6,37.3-71.9,108.9-66.7c65.4,4.8,93,44.8,100.6,83.4c1.1,6.3,4,10.9,11.2,11l117.7,1
	c0.6,0,1-0.1,1.5-0.1C1230.8,275.1,1222.3,318.2,1222.3,364.5L1222.3,364.5z M1022.1,581c-56.9,0-119.6-20.2-134.1-98.5
	c-1.2-7.5-4.8-10.6-10.5-10.7l-113.8-1.5V269.2c15,59,64.5,99.8,171.6,123.9c71.7,17.2,196.1,28.1,196.1,101.7
	C1131.4,546,1093.6,582.2,1022.1,581L1022.1,581z M455.3,566.3c-91.8,0-175.9-72.3-175.9-201.7c0-101.6,63.1-200,176.5-200
	c49.1,0,173.8,16.8,173.8,200C629.7,548.2,499.6,566.3,455.3,566.3L455.3,566.3z M1854,315.2c26.1,34.8,73.3,60.6,149.9,77.9
	c71.7,17.2,196.1,28.1,196.1,101.7c0,51.3-37.8,87.5-109.3,86.3c-56.9,0-119.7-20.2-134.1-98.5c-1.2-7.5-4.7-10.6-10.5-10.7
	l-105.4-1.4c11.1-32.8,16.8-68.4,16.8-105.9C1857.4,348,1856.3,331.5,1854,315.2L1854,315.2z M2082.9,683.5
	c126.3,0,275.1-47,263.4-199.5c-12.9-135.3-153.7-169.6-224.1-183.7c-82.9-17.5-146.2-33.5-146.2-92.5c0-41.6,37.3-71.9,108.9-66.7
	c65.4,4.8,93,44.8,100.6,83.4c1.1,6.3,4,10.9,11.2,11l117.7,1c9,0.1,11.7-4.6,10.6-11c-23.1-141.1-140.9-181-249.4-181
	c-108.3,0-238.8,30.4-248.1,165.1c-0.3,5.2-0.4,10.3-0.4,15.4c-17.2-35.8-42.1-68.8-74.1-97.9c-59.1-53.3-132.9-81.9-213.3-82.6
	h-2.7c-38.4,0-76,7.1-111.7,21.1c-36.3,14.4-69.8,35.2-98.7,61.5c-30.3,27.6-54.3,58.5-71.4,92.1c-25.5-136-141.4-174.8-248.2-174.8
	c-99.4,0-217.6,25.7-243.3,134.3V71.1c0-5.7-4.7-10.4-10.4-10.4H642.5c-5.7,0-10.4,4.7-10.4,10.4v29.1c0,4.9-3.3,6.6-7.3,3.7
	c-39.4-28.6-97.8-59.3-168-59.3c-39.4,0-77.1,6.9-112,20.6c-34.9,13.7-68,34.6-98.5,62c-34.6,31.5-61,67.4-78.3,106.8
	s-26.1,83.3-26.1,130.6c0,44.2,7.8,85.6,23.1,123s38.6,72,69.3,102.9c30.7,30.9,65,54.3,101.9,69.8c36.9,15.4,77.7,23.2,121.1,23.2
	c74.6,0,130.6-31.8,167.3-60.7c4-3.1,7.4-1.4,7.4,3.6v30.5c0,5.7,4.7,10.4,10.4,10.4h110.8c5.7,0,10.4-4.7,10.4-10.4V554.1
	c52.3,122.9,185.4,129.4,250.6,129.4c109,0,234.6-35.1,259.6-142.7c12,17.8,25.7,34.4,40.8,49.6c59.4,59.8,137.3,91.9,225.2,92.9
	h3.6c41.8,0,82.1-8,119.8-23.9c38.1-16.1,72.6-39.6,101.6-69c21.7-21.6,40.2-46.2,55-73C1859.6,675.8,2011.7,683.5,2082.9,683.5
	L2082.9,683.5z"/>
</svg>
