<?xml version="1.0" encoding="utf-8"?>
<!-- Generator: Adobe Illustrator 24.1.2, SVG Export Plug-In . SVG Version: 6.00 Build 0)  -->
<svg version="1.1" id="Layer_1" xmlns="http://www.w3.org/2000/svg" xmlns:xlink="http://www.w3.org/1999/xlink" x="0px" y="0px"
	 viewBox="0 0 2500 745" style="enable-background:new 0 0 2500 745;" xml:space="preserve">
<style type="text/css">
	.st0{fill-rule:evenodd;clip-rule:evenodd;fill:#FFFFFF;}
</style>
<g>
	<path class="st0" d="M2380.4,335.1c-19.9-29-41.2-43-74.7-43c-59.9,0-103.8,61-103.8,133.9s43.9,124.6,103.8,124.6
		c33.5,0,66.8-9.5,81.2-45.1v35.9H2499V189h-118.6V335.1z M2324.5,418.4c0-28.7,13.2-52,29.6-52c16.3,0,29.6,23.3,29.6,52
		s-13.3,52-29.6,52C2337.7,470.4,2324.5,447.1,2324.5,418.4z M2186.8,453.1v-19.8c0-100.1-60.3-142.8-139.1-142.8
		c-86.7,0-139.5,54.8-139.5,133.2c0,85.1,56.3,130.2,139.5,130.2c43.1,2.1,80-2.8,120.9-16.1V474c-48.8,23.1-149.1,18.7-143.5-20.9
		L2186.8,453.1L2186.8,453.1L2186.8,453.1z M2023.8,397.9c0.3-26.5,8.4-47.1,31-47.1c19,0,28.2,21.5,27.4,47.1H2023.8L2023.8,397.9z
		 M284.8,326.7l84.1,103.2l-56.1,0.2l88.5,121.2h151.1l-84.8-120.9h111.1L407.9,200.9H162L-3,431.5h114.6L24.4,551.3h160.5
		l74.4-121.4h-54.9L284.8,326.7L284.8,326.7z M201.5,315.3l82.4-107.6l85.9,107.6H201.5L201.5,315.3z M1715.6,549.4L1715.6,549.4
		l6.3,0.1V391.2c0-10.5,8.7-19,19.5-19.1c11-0.2,20.1,8.5,20.1,19.1v158.3h118.2V367.9c0-62.3-55-76-82.6-76
		c-34.4,0-60.3,16.6-78.5,37.2c-0.9,1-3.8,6.3-3.8,6.3c-15.1-35-53.7-43.6-75.6-43.6c-37.2,0-65.1,19.5-83.3,42.5v-30.5h-111.5
		v245.5H1564V391.1c0-10.5,8.7-19,19.5-19.1c11-0.2,20.1,8.5,20.1,19.1v158.3L1715.6,549.4L1715.6,549.4L1715.6,549.4z M966.4,547.4
		h117.4v-155c0-10.5,8.5-18.9,19.2-19.1c10.7-0.2,19.5,8.2,19.7,18.9c0,0.1,0,0.1,0,0.2v155h118.6V369.1c0-62.3-56.5-75.9-83.6-75.9
		c-36.6,0-63.9,19.5-81.8,42.4v-31.7H966.4L966.4,547.4L966.4,547.4z M925.4,303.4H806.7v153.1c-0.1,11.3-9.3,20.3-20.5,20.3h-0.3
		c-11.5,0.1-20.8-9-20.8-20.3V303.4H646.8v176.2c0,61.7,55.3,75.3,82.9,75.3c37.4,0,66.3-12.8,85.1-44.8v38.2h110.6L925.4,303.4
		L925.4,303.4z M1285.5,549h118.9V303.5h-118.9V549L1285.5,549z M1285.8,273.5h118.8V192h-119.1L1285.8,273.5L1285.8,273.5z"/>
</g>
</svg>
