<?xml version="1.0" encoding="utf-8"?>
<!-- Generator: Adobe Illustrator 24.1.2, SVG Export Plug-In . SVG Version: 6.00 Build 0)  -->
<svg version="1.1" id="Layer_1" xmlns="http://www.w3.org/2000/svg" xmlns:xlink="http://www.w3.org/1999/xlink" x="0px" y="0px"
	 viewBox="0 0 2500 540" style="enable-background:new 0 0 2500 540;" xml:space="preserve">
<style type="text/css">
	.st0{fill:#FFFFFF;}
</style>
<g>
	<path class="st0" d="M222.8,42.4c-1.6,0.2-7.3,0.9-12.5,1.5c-69.1,7.9-130.7,44.2-166.6,98.3C11.7,190.4,0,251.4,11.1,311.9
		c18.1,98.2,95.5,168.1,200.3,180.8c15.9,2,49.1,2.2,65.2,0.5c47.4-5.1,83.6-19.5,117-46.6c10.2-8.3,25.2-22.8,32.7-31.8
		c25-30,16.2-75.7-18.1-93.7c-18.7-9.9-37.8-10-57.1-0.6c-7,3.5-10.4,6.1-20.5,15.9c-20.8,20.2-36.8,30.3-57,35.7
		c-8.9,2.4-11.7,2.6-27.9,2.7c-21.5,0.1-30-1.7-45.9-9.4c-21.6-10.5-36.6-28.3-44.8-52.9c-5.2-15.5-6.9-26.9-6.9-44.9
		c0-22.3,3.6-39.4,11.5-55.4c16.3-32.8,45.7-49.9,85.2-49.7c33,0.2,62.3,15.5,83.3,43.3c23.5,31.2,67.7,34.5,95,7
		c13.2-13.2,18.5-26.3,18.4-45c-0.2-21.2-6.2-32.7-31.5-59.3c-29.4-31.1-64-51.2-103-59.9c-20.3-4.6-30.7-5.7-56.6-6.1
		C236.8,42.1,224.5,42.2,222.8,42.4L222.8,42.4z M1113,42.9C1010.8,53.5,931.1,119,907.8,211.5c-8,31.8-9.2,67.1-3.5,98.8
		c14,76.5,64.3,136.9,138.7,166.5c61.2,24.3,137.2,23.9,197.7-1.1c73-30.2,122.2-90.9,135.3-166.7c5.5-31.5,4-66.9-4-98.8
		c-6.8-26.9-20.3-54.8-37.4-77.7c-8.6-11.5-31.4-34-43.3-42.8c-35.5-26.4-77.5-42-125.2-46.8C1153.9,41.6,1125.2,41.7,1113,42.9
		L1113,42.9z M1162.4,162.1c39,7.5,65.9,36.7,73.8,80.5c4.7,26.2,1.8,57-7.5,79c-9.8,23-27.2,40.6-48.5,49.4
		c-12.8,5.2-21.7,6.7-39.7,6.7c-14.6,0-18.3-0.3-26-2.3c-38.5-10-63.3-38.6-71-82.3c-2.2-12.3-2.2-36,0-48.5
		c8.8-48.9,38.7-78.6,85-84C1137,159.6,1153,160.3,1162.4,162.1L1162.4,162.1z M1659.2,43.3c-56.8,7.1-103.3,28.2-140.1,63.4
		c-54.4,52.1-77.3,129.8-61.5,209c9.8,49.1,35.4,92.9,73,124.2c17.5,14.6,42.1,29,64.2,37.6c33.7,13.1,75.5,19.3,113.8,16.7
		c52.3-3.4,88.3-15.8,124.8-42.8c12.2-9,37.8-34.4,42.9-42.3c10.4-16.6,12.8-36.3,6.5-54.3c-9-25.6-34.9-42.7-61.9-40.8
		c-17.8,1.2-26.7,5.6-43.8,22c-26,24.7-43.2,34.4-68.3,38.1c-20.2,3.1-44.3,0.3-61-7.1c-27.1-12-45.8-38.4-52.1-73.4
		c-2.1-11.7-2.4-38-0.5-49.4c6.6-40.3,31-69,66.4-78.3c41.7-11,84.4,3.7,110.4,37.9c7.9,10.3,14.7,16.2,24.4,20.9
		c18.5,9.2,37.6,9.2,56,0.1c21.7-10.8,34.6-31.4,34.7-55.5c0.1-16.6-4.6-29.1-16-43c-33.6-41-68.9-65-112.9-76.4
		c-20.4-5.3-34.8-7-62.6-7.4C1677.8,42,1667.4,42.3,1659.2,43.3L1659.2,43.3z M2110.5,42.5c-31.9,3-53.6,8.4-74.5,18.4
		c-37,17.7-59,44.8-68.4,84.8c-2.6,10.9-3.7,42.2-2,55.2c6.6,49.7,36.7,85.3,90,106.3c12.7,5,29.4,9.9,57.4,16.7
		c60,14.5,67.7,17.3,72.4,26.5c2.7,5.2,2.7,14.7,0.1,19.8c-5.6,10.9-17.7,15-47.2,15.9c-41.2,1.3-67-6.8-103.5-32.8
		c-13.7-9.8-19.9-12.6-31.7-14.1c-24.5-3.3-49.1,12.5-57.7,36.9c-3,8.6-3,25.4,0.1,34.4c2.2,6.2,7.6,15.5,11.9,20.3
		c7.2,8.1,31,25.4,46.7,34c45.2,24.7,108,34.7,172.8,27.9c70.6-7.6,115.4-38.2,131.6-89.8c5.1-16.3,7.7-33.7,7.7-52.1
		c0-35.8-11.2-63.6-34.7-86.4c-25.1-24.2-57.6-38.8-113.3-51.3c-50.3-11.2-61-14.3-70.4-20.3c-8.1-5.3-10.6-10-10.7-19.7
		c0-6,0.4-7.6,2.8-11.2c4.9-7.5,13.5-11.3,29.7-13.3c32.8-4,67.5,7.3,97.9,31.8c12.8,10.3,23.1,14.3,37,14.3
		c17.9,0,33.1-7.9,43.5-22.6c11.5-16.1,13.1-35.7,4.5-53.8c-4.3-9.1-11-16.9-24.1-28c-32.4-27.5-70.2-42.5-118.7-47.4
		C2150.2,41.9,2118.9,41.6,2110.5,42.5L2110.5,42.5z M575.5,48.8c-24.6,3.9-43.6,18.1-54.2,40.3c-6.8,14.3-6.5,4.2-6.2,184.6
		l0.3,163l3,8.5c7.5,21.5,25,38,47.4,45.1c9.5,2.9,26.9,3.2,36.9,0.5c19.4-5.1,36.8-19.5,45.4-37.1c6.9-14.3,6.8-12.6,7.5-79.9
		c0.6-56.5,0.8-61.7,2.8-72.8c2.7-14.3,4.5-21.4,7.9-30.9c14-38.8,41.5-64.6,77.5-72.2c10-2.1,18.8-1.7,32.8,1.3
		c17.2,3.6,35.2,3.8,45.3,0.5c10.7-3.6,20.1-9.6,29-18.6c13.6-13.8,19.9-29.2,19.9-48.5c-0.1-12.7-1.9-20.5-7.4-31.5
		c-7.7-15.4-17.2-24.5-34.5-33.1c-17.2-8.5-23.2-9.8-46.4-9.8c-22.3,0-33,1.5-50.1,7c-25.2,8.1-50.4,23-69.9,41.1
		c-3.6,3.4-6.8,6.2-7.2,6.2c-0.3,0-0.6-1.4-0.6-3.1c0-9-7.9-26.9-16.2-36.6c-9.1-10.7-22.5-19.1-35.9-22.6
		C594.9,48.5,582.5,47.7,575.5,48.8L575.5,48.8z"/>
	<path class="st0" d="M2350.7,66.2h2V55.5c0-2.9,0.1-5.1,0.2-6.8s0.6-3,1.3-4.2c0.7-1.2,1.7-2.2,3-3c3.5-1.9,7.8-1.4,10.6,1.4
		c1.2,1.1,2,2.6,2.4,4.2c0.3,1.6,0.5,4,0.5,7v12.2h6.6c2.6,0,4.5,0.6,5.9,1.8c1.3,1.2,2.1,2.9,2,4.6c0,2.4-1,4.1-2.9,5
		c-1.9,1-4.7,1.4-8.2,1.4h-3.4V112c0,2.8,0.1,4.9,0.3,6.5c0.1,1.4,0.7,2.6,1.6,3.7c0.9,0.9,2.3,1.4,4.2,1.4c1.1,0,2.5-0.2,4.3-0.6
		c1.8-0.4,3.2-0.6,4.2-0.6c1.5,0,2.8,0.6,3.9,1.7c1.2,1.2,1.8,2.6,1.8,4.3c0,2.9-1.6,5.1-4.8,6.6c-3.2,1.5-7.7,2.3-13.7,2.3
		c-5.6,0-9.9-0.9-12.8-2.8c-2.9-1.9-4.8-4.5-5.7-7.8c-0.9-3.3-1.4-7.8-1.4-13.3V79.1h-2.4c-2.6,0-4.6-0.6-6-1.8
		c-1.3-1.2-2.1-2.9-2-4.7c0-1.9,0.7-3.4,2.2-4.6C2345.9,66.8,2348,66.2,2350.7,66.2L2350.7,66.2z M2457.7,102.3v23.8
		c0,3.8-0.9,6.6-2.6,8.5c-1.7,1.9-4,2.8-6.8,2.8c-2.7,0-5-0.9-6.7-2.8s-2.5-4.7-2.5-8.5V97.6c0-4.5-0.2-8-0.5-10.5
		c-0.3-2.5-1.1-4.5-2.5-6.1c-1.4-1.6-3.5-2.4-6.5-2.4c-5.9,0-9.8,2-11.7,6c-1.9,4-2.8,9.8-2.8,17.3v24.2c0,3.7-0.9,6.5-2.6,8.4
		c-1.7,1.9-3.9,2.9-6.7,2.9c-2.7,0-5-1-6.7-2.8c-1.7-1.9-2.6-4.7-2.6-8.4V74.9c0-3.4,0.8-5.9,2.4-7.7c1.6-1.7,3.6-2.6,6.2-2.6
		c2.5,0,4.5,0.8,6.2,2.5c1.7,1.6,2.5,3.9,2.5,6.8v1.7c3.1-3.7,6.5-6.4,10.1-8.2c3.7-1.8,7.8-2.7,11.9-2.6c4.5,0,8.4,0.9,11.7,2.7
		c3.3,1.8,6,4.5,8.1,8.1c3-3.7,6.3-6.4,9.8-8.2c3.5-1.8,7.3-2.6,11.6-2.6c4.9,0,9.2,1,12.8,2.9c3.6,1.9,6.2,4.7,8,8.3
		c1.5,3.2,2.3,8.3,2.3,15.3v34.9c0,3.8-0.9,6.6-2.6,8.5c-1.7,1.9-4,2.8-6.8,2.8c-2.7,0-5-1-6.7-2.8c-1.7-1.9-2.6-4.7-2.6-8.4V96
		c0-3.8-0.2-6.9-0.5-9.2c-0.3-2.2-1.2-4.2-2.7-5.8c-1.5-1.6-3.7-2.4-6.6-2.4c-2.4,0-4.6,0.7-6.8,2.1c-2.1,1.4-3.8,3.3-5,5.6
		C2458.4,89.3,2457.7,94.7,2457.7,102.3L2457.7,102.3z"/>
</g>
</svg>
