<?xml version="1.0" encoding="utf-8"?>
<!-- Generator: Adobe Illustrator 24.1.2, SVG Export Plug-In . SVG Version: 6.00 Build 0)  -->
<svg version="1.1" id="Layer_1" xmlns="http://www.w3.org/2000/svg" xmlns:xlink="http://www.w3.org/1999/xlink" x="0px" y="0px"
	 viewBox="0 0 2500 509" style="enable-background:new 0 0 2500 509;" xml:space="preserve">
<style type="text/css">
	.st0{fill:#FFFFFF;}
</style>
<path class="st0" d="M256.4,411.8c4.7,0,7-1.6,9.4-5.5l105.8-197.6c12.5-23.4,25.2-49.4,31.5-61.9c0.8-2.3,3.1-1.6,3.1,0v350.4
	c0,3.9,2.3,6.2,6.2,6.2h65.8c3.9,0,6.2-2.3,6.2-6.2V26c0-3.9-2.3-6.2-6.2-6.2h-86.3c-5.5,0-8.6,2.3-10.9,6.2L244,294.8
	c-0.8,1.6-1.6,1.6-2.3,0L104.4,26c-2.3-3.9-5.5-6.2-10.9-6.2H7.1c-3.9-0.3-6.2,2.1-6.2,6.2v471.3c0,3.9,2.3,6.2,6.2,6.2h65.8
	c3.9,0,6.2-2.3,6.2-6.2V146.6c0-1.6,2.3-2.3,3.1,0c6.2,12.5,18.7,38.5,31.5,61.9l105.8,197.6c2.3,3.9,4.7,5.5,9.4,5.5h27.6V411.8z
	 M1289.3,7.8c0-3.9-2.3-6.2-6.2-6.2h-65.8c-3.9,0-6.2,2.3-6.2,6.2v154.4c0,2.3-0.8,3.1-3.1,2.3c-29.1-12.5-56.4-19.5-87.9-19.5
	c-97.2,0-169.5,65.8-169.5,178.9c0,127.1,76.2,185.1,163,185.1c40.8,0,73-10.9,105.8-34.6l54.1,27.6c9.4,4.7,15.6,0,15.6-8.6V7.8
	H1289.3z M557.7,324.7c0,131,87.9,184.3,175.7,184.3c51,0,98.8-14,139.6-44.7c3.9-3.1,4.7-5.5,2.3-10.1l-21.1-40
	c-2.3-4.7-5.5-4.7-9.4-2.3c-37.7,21.8-68.9,32.2-106.6,32.2c-44.7,0-95.7-22.6-102.7-96.4c0-0.8,0-2.3,2.3-2.3h245.4
	c7.8,0,7-13.3,7-25.2c0-126.3-75.4-175-159.1-175C632.9,145.1,557.7,210,557.7,324.7L557.7,324.7z M1697.1,443.8
	c-33,0-55.6-12.5-65.8-35.4c-4.7-10.1-7-23.4-7-43.9V156c0-3.9-2.3-6.2-6.2-6.2h-65.8c-3.9,0-6.2,2.3-6.2,6.2v211.6
	c0,33,4.7,54.9,12.5,73c21.1,46.3,66.5,68.1,126.3,68.1c44.7,0,78.5-10.9,112-34.6l54.1,27.6c9.4,4.7,15.6,0,15.6-8.6V156
	c0-3.9-2.3-6.2-6.2-6.2h-65.8c-3.9,0-6.2,2.3-6.2,6.2v217.3c0,19.5-0.8,28.3-13.3,40.8C1750.4,437.5,1724.4,443.8,1697.1,443.8z
	 M1029.8,324.7c0-75.4,41.6-114.4,94.1-114.4c26.8,0,51,6.2,71.2,24.4c14,12.5,15.6,23.4,15.6,50.2v88.6c0,19.5-0.8,28.3-13.3,40.8
	c-24.4,23.4-50.2,29.9-73.8,29.9C1082.3,443.8,1029.8,417.2,1029.8,324.7L1029.8,324.7z M1381,497c0,3.9,2.3,6.2,6.2,6.2h65.8
	c3.9,0,6.2-2.3,6.2-6.2V156c0-3.9-2.3-6.2-6.2-6.2h-65.8c-3.9,0-6.2,2.3-6.2,6.2V497z M638.3,280.8c7.8-44.7,40.8-73.8,91-73.8
	s80.8,34.6,80.8,75.4c0,1.6-0.8,2.3-2.3,2.3H640.9C637.5,284.7,638.3,281.5,638.3,280.8L638.3,280.8z M1374,43.9
	c0,24.4,20.3,43.9,46.3,43.9s46.3-19.5,46.3-43.9S1446,0,1420.3,0C1394.3,0,1374,19.5,1374,43.9z M2420.9,497c0,3.9,2.3,6.2,6.2,6.2
	h65.8c3.9,0,6.2-2.3,6.2-6.2V290.1c0-40-6.2-65-16.4-85.5c-21.8-41.6-64.2-59.5-115.9-59.5c-47.1,0-90.2,16.4-124,49.4
	c-25.2-33-61.9-49.4-106.6-49.4c-42.4,0-76.2,10.9-108.1,34.6l-54.1-27.6c-9.4-4.7-15.6,0-15.6,8.6V497c0,3.9,2.3,6.2,6.2,6.2h65.8
	c3.9,0,6.2-2.3,6.2-6.2V280.8c0-20.3,1.6-29.9,11.7-40.8c17.2-18.7,43.2-29.1,69.7-29.1c43.9,0,71.2,25.2,71.2,71.2v215
	c0,3.9,2.3,6.2,6.2,6.2h65.8c3.9,0,6.2-2.3,6.2-6.2V280.8c0-20.3,1.6-29.9,11.7-40.8c17.2-18.7,43.2-29.1,69.7-29.1
	c29.1,0,51,10.9,62.7,32.2c5.5,10.9,8.6,25.2,8.6,44.7V497H2420.9z"/>
</svg>
