<?xml version="1.0" encoding="utf-8"?>
<!-- Generator: Adobe Illustrator 24.1.2, SVG Export Plug-In . SVG Version: 6.00 Build 0)  -->
<svg version="1.1" id="Layer_1" xmlns="http://www.w3.org/2000/svg" xmlns:xlink="http://www.w3.org/1999/xlink" x="0px" y="0px"
	 viewBox="0 0 2500 509" style="enable-background:new 0 0 2500 509;" xml:space="preserve">
<style type="text/css">
	.st0{display:none;fill:#FFFFFF;}
	.st1{fill:#FFFFFF;}
</style>
<path class="st0" d="M256.4,411.8c4.7,0,7-1.6,9.4-5.5l105.8-197.6c12.5-23.4,25.2-49.4,31.5-61.9c0.8-2.3,3.1-1.6,3.1,0v350.4
	c0,3.9,2.3,6.2,6.2,6.2h65.8c3.9,0,6.2-2.3,6.2-6.2V26c0-3.9-2.3-6.2-6.2-6.2h-86.3c-5.5,0-8.6,2.3-10.9,6.2L244,294.8
	c-0.8,1.6-1.6,1.6-2.3,0L104.4,26c-2.3-3.9-5.5-6.2-10.9-6.2H7.1c-3.9-0.3-6.2,2.1-6.2,6.2v471.3c0,3.9,2.3,6.2,6.2,6.2h65.8
	c3.9,0,6.2-2.3,6.2-6.2V146.6c0-1.6,2.3-2.3,3.1,0c6.2,12.5,18.7,38.5,31.5,61.9l105.8,197.6c2.3,3.9,4.7,5.5,9.4,5.5h27.6V411.8z
	 M1289.3,7.8c0-3.9-2.3-6.2-6.2-6.2h-65.8c-3.9,0-6.2,2.3-6.2,6.2v154.4c0,2.3-0.8,3.1-3.1,2.3c-29.1-12.5-56.4-19.5-87.9-19.5
	c-97.2,0-169.5,65.8-169.5,178.9c0,127.1,76.2,185.1,163,185.1c40.8,0,73-10.9,105.8-34.6l54.1,27.6c9.4,4.7,15.6,0,15.6-8.6V7.8
	H1289.3z M557.7,324.7c0,131,87.9,184.3,175.7,184.3c51,0,98.8-14,139.6-44.7c3.9-3.1,4.7-5.5,2.3-10.1l-21.1-40
	c-2.3-4.7-5.5-4.7-9.4-2.3c-37.7,21.8-68.9,32.2-106.6,32.2c-44.7,0-95.7-22.6-102.7-96.4c0-0.8,0-2.3,2.3-2.3h245.4
	c7.8,0,7-13.3,7-25.2c0-126.3-75.4-175-159.1-175C632.9,145.1,557.7,210,557.7,324.7L557.7,324.7z M1697.1,443.8
	c-33,0-55.6-12.5-65.8-35.4c-4.7-10.1-7-23.4-7-43.9V156c0-3.9-2.3-6.2-6.2-6.2h-65.8c-3.9,0-6.2,2.3-6.2,6.2v211.6
	c0,33,4.7,54.9,12.5,73c21.1,46.3,66.5,68.1,126.3,68.1c44.7,0,78.5-10.9,112-34.6l54.1,27.6c9.4,4.7,15.6,0,15.6-8.6V156
	c0-3.9-2.3-6.2-6.2-6.2h-65.8c-3.9,0-6.2,2.3-6.2,6.2v217.3c0,19.5-0.8,28.3-13.3,40.8C1750.4,437.5,1724.4,443.8,1697.1,443.8z
	 M1029.8,324.7c0-75.4,41.6-114.4,94.1-114.4c26.8,0,51,6.2,71.2,24.4c14,12.5,15.6,23.4,15.6,50.2v88.6c0,19.5-0.8,28.3-13.3,40.8
	c-24.4,23.4-50.2,29.9-73.8,29.9C1082.3,443.8,1029.8,417.2,1029.8,324.7L1029.8,324.7z M1381,497c0,3.9,2.3,6.2,6.2,6.2h65.8
	c3.9,0,6.2-2.3,6.2-6.2V156c0-3.9-2.3-6.2-6.2-6.2h-65.8c-3.9,0-6.2,2.3-6.2,6.2V497z M638.3,280.8c7.8-44.7,40.8-73.8,91-73.8
	s80.8,34.6,80.8,75.4c0,1.6-0.8,2.3-2.3,2.3H640.9C637.5,284.7,638.3,281.5,638.3,280.8L638.3,280.8z M1374,43.9
	c0,24.4,20.3,43.9,46.3,43.9s46.3-19.5,46.3-43.9S1446,0,1420.3,0C1394.3,0,1374,19.5,1374,43.9z M2420.9,497c0,3.9,2.3,6.2,6.2,6.2
	h65.8c3.9,0,6.2-2.3,6.2-6.2V290.1c0-40-6.2-65-16.4-85.5c-21.8-41.6-64.2-59.5-115.9-59.5c-47.1,0-90.2,16.4-124,49.4
	c-25.2-33-61.9-49.4-106.6-49.4c-42.4,0-76.2,10.9-108.1,34.6l-54.1-27.6c-9.4-4.7-15.6,0-15.6,8.6V497c0,3.9,2.3,6.2,6.2,6.2h65.8
	c3.9,0,6.2-2.3,6.2-6.2V280.8c0-20.3,1.6-29.9,11.7-40.8c17.2-18.7,43.2-29.1,69.7-29.1c43.9,0,71.2,25.2,71.2,71.2v215
	c0,3.9,2.3,6.2,6.2,6.2h65.8c3.9,0,6.2-2.3,6.2-6.2V280.8c0-20.3,1.6-29.9,11.7-40.8c17.2-18.7,43.2-29.1,69.7-29.1
	c29.1,0,51,10.9,62.7,32.2c5.5,10.9,8.6,25.2,8.6,44.7V497H2420.9z"/>
<path class="st1" d="M127.3,191.2c35.7,0,65.3,18.4,79.4,38.2v-33.3h54.4v247.2H222c-8.5,0-15.5-6.8-15.5-15.4c0,0,0-0.1,0-0.1V410
	c-13.8,20.1-43.4,38.5-79.1,38.5C59.5,448.5,8,390.5,8,319.9S59.2,191.2,127.3,191.2 M136.8,240.6c-44,0-73.9,34.7-73.9,79.2
	s29.6,79.2,73.9,79.2c44,0,73.9-34.7,73.9-79.2S181.4,240.6,136.8,240.6 M322.9,196.1h54.6v33.6c15-24.7,43.1-38.5,75.3-38.5
	c57.5,0,94.6,40.5,94.6,103.4v148.7h-39.1c-8.5,0-15.5-6.9-15.5-15.4c0,0,0-0.1,0-0.1V303.5c0-39-19.8-62.9-51.5-62.9
	c-36.2,0-63.8,28.1-63.8,81v121.7h-39.1c-8.5,0-15.5-6.9-15.5-15.4c0,0,0-0.1,0-0.1L322.9,196.1z M710,191.2
	c35.7,0,65.3,18.4,79.4,38.2V72.7h54.4v371h-39.1c-8.5,0-15.5-6.9-15.5-15.4c0,0,0-0.1,0-0.1v-17.8c-13.8,19.8-43.7,38.2-79.4,38.2
	c-67.9,0-119.3-58-119.3-128.6C590.6,249.2,642.1,191.2,710,191.2 M719.8,240.6c-44,0-73.9,34.7-73.9,79.2s29.6,79.2,73.9,79.2
	c44,0,73.9-34.7,73.9-79.2S763.8,240.6,719.8,240.6 M905.6,196.1h54.4V240c9.8-27.7,35.9-46.3,65.3-46.5c7.1,0,14.3,0.7,21.3,2v56
	c-8.8-3-18-4.5-27.3-4.6c-31.3,0-59.5,26.1-59.5,75.8v120.6h-39.1c-8.5,0-15.5-6.9-15.5-15.4c0,0,0-0.1,0-0.1V196.1L905.6,196.1z
	 M1193.7,448.5c-73.3,0-129.7-56.9-129.7-128.6s56.4-128.6,129.7-128.6c73.3,0,129.7,56.9,129.7,128.6S1267.1,448.5,1193.7,448.5
	 M1193.7,398c43.7,0,74.2-34.2,74.2-78.1s-30.8-78.1-74.2-78.1c-44,0-74.8,34.2-74.8,78.1S1149.7,398,1193.7,398 M1394.7,142.1
	c-20.1,0-36.4-16.3-36.4-36.3c0-20.1,16.3-36.3,36.4-36.3c0,0,0,0,0,0c20.1,0,36.4,16.3,36.4,36.3
	C1431.1,125.9,1414.8,142.1,1394.7,142.1 M1367.7,196.1h54.4v247.2h-39.1c-8.5,0-15.5-6.8-15.5-15.4c0,0,0-0.1,0-0.1
	C1367.7,427.8,1367.7,196.1,1367.7,196.1z M1586.3,191.2c35.7,0,65.3,18.4,79.4,38.2V72.7h54.4v371h-39.1c-8.5,0-15.5-6.8-15.5-15.4
	c0,0,0-0.1,0-0.1v-17.8c-13.8,19.8-43.7,38.2-79.4,38.2c-67.9,0-119.3-58-119.3-128.6C1466.9,249.2,1518.4,191.2,1586.3,191.2
	 M1596.3,240.6c-44,0-73.9,34.7-73.9,79.2s29.6,79.2,73.9,79.2c44,0,73.9-34.7,73.9-79.2S1640.3,240.6,1596.3,240.6"/>
<path class="st1" d="M2321.4,351c-15.2,0-27.6-12.4-27.6-27.6c0-15.2,12.3-27.6,27.6-27.6s27.6,12.4,27.6,27.6c0,0,0,0,0,0
	C2349,338.7,2336.7,351,2321.4,351 M2017.7,351c-15.2,0-27.6-12.4-27.6-27.6c0-15.2,12.3-27.6,27.6-27.6s27.6,12.4,27.6,27.6
	c0,0,0,0,0,0C2045.3,338.7,2033,351,2017.7,351 M2331.2,185.5l55.2-95.1c3.1-5.5,1.2-12.4-4.2-15.5c-5.5-3.1-12.4-1.2-15.5,4.2
	c0,0,0,0.1,0,0.1l-55.7,96.3c-44.3-20.2-92.4-30.6-141.1-30.5c-48.7-0.1-96.9,10.2-141.4,30.2l-56-96.3c-3.1-5.5-10-7.4-15.5-4.4
	s-7.4,10-4.4,15.5c0,0,0,0.1,0,0.1l54.9,95.1C1911,237.8,1847.6,335.5,1839,445h660C2490.6,335.6,2427.5,238,2331.2,185.5"/>
</svg>
